<svg xmlns="http://www.w3.org/2000/svg" width="1600" height="850" viewBox="0 0 1600 850">
<defs>
<linearGradient id="g" x1="0" y1="0" x2="1" y2="1"><stop stop-color="#111"/><stop offset=".55" stop-color="#2b0000"/><stop offset="1" stop-color="#c40000"/></linearGradient>
</defs>
<rect width="1600" height="850" fill="url(#g)"/>
<rect x="0" y="620" width="1600" height="230" fill="#1c1c1c"/>
<path d="M230 560 C330 390 470 345 690 350 L905 350 C1070 355 1195 420 1320 560 Z" fill="#fff"/>
<path d="M445 360 L565 245 L890 245 L1040 360 Z" fill="#e6e6e6"/>
<path d="M595 270 L510 355 L735 355 L735 270 Z" fill="#111"/>
<path d="M765 270 L765 355 L1010 355 L875 270 Z" fill="#111"/>
<rect x="330" y="515" width="900" height="70" rx="35" fill="#c40000"/>
<circle cx="430" cy="590" r="92" fill="#0b0b0b"/>
<circle cx="430" cy="590" r="42" fill="#777"/>
<circle cx="1115" cy="590" r="92" fill="#0b0b0b"/>
<circle cx="1115" cy="590" r="42" fill="#777"/>
<rect x="130" y="135" width="250" height="95" rx="14" fill="#ffffff" opacity=".96"/>
<text x="255" y="174" font-family="Arial" font-size="24" fill="#c40000" text-anchor="middle" font-weight="800">PROFESSIONAL</text>
<text x="255" y="205" font-family="Arial" font-size="24" fill="#111" text-anchor="middle" font-weight="800">AUTO REPAIR</text>
</svg>